# xmcd CD database file
#
# Track frame offsets:
#	150
#	38887
#	99414
#	148316
#	178216
#	184279
#	227181
#	271325
#
# Disc length: 4451 seconds
#
# Revision: 0
# Processed by: cddbd v1.5.1PL2 Copyright (c) Steve Scherf et al.
# Submitted via: CDex 1.51
#
DISCID=76116108
DTITLE=Coverdale Page - 12-22-Over Now - The Last Live CD2
DYEAR=1993
DGENRE=Blues
TTITLE0=Here I Go Again
TTITLE1=Jimmy Page Solo - White Summer - Black Mountain Side - Kashmir
TTITLE2=Don't Leave Me This Way
TTITLE3=Shake My Tree - Whole Lotta Love - Shake My Tree
TTITLE4=Still Of The Night
TTITLE5=Out On the Tiles - Black Dog
TTITLE6=The Ocean - The Wanton Song - Feeling Hot
TTITLE7=Data
EXTD=YEAR: 1993
EXTT0=
EXTT1=
EXTT2=
EXTT3=
EXTT4=
EXTT5=
EXTT6=
EXTT7=
PLAYORDER=
